<svg xmlns="http://www.w3.org/2000/svg" viewBox="0 0 459 459"><defs><linearGradient id="a" x1="1.13" y1="411.22" x2="431.51" y2="22.9" gradientUnits="userSpaceOnUse"><stop offset=".02" stop-color="#00bed9"/><stop offset=".07" stop-color="#0eacd3"/><stop offset=".25" stop-color="#3778c1"/><stop offset=".42" stop-color="#584db3"/><stop offset=".58" stop-color="#722ba8"/><stop offset=".74" stop-color="#8513a0"/><stop offset=".88" stop-color="#90059b"/><stop offset="1" stop-color="#940099"/></linearGradient></defs><g data-name="Слой 2"><g data-name="Слой 1"><path d="M229.5 458.5A229 229 0 0167.57 67.57a229 229 0 01323.86 323.86A227.52 227.52 0 01229.5 458.5z" fill="#fff"/><path d="M229.5 1a228.43 228.43 0 01161.57 390.07A228.49 228.49 0 11140.56 19 227 227 0 01229.5 1m0-1C102.75 0 0 102.75 0 229.5S102.75 459 229.5 459 459 356.25 459 229.5 356.25 0 229.5 0z"/><path d="M217.47 113.51a45.1 45.1 0 00-13.92 33.34v47.46h88.24v40.78h-88.24V385.7h-40.79V146.85a84.27 84.27 0 0112-43.73A90.26 90.26 0 01206.88 71a84.34 84.34 0 0143.73-12h46.67v40.79h-46.67a45.62 45.62 0 00-33.14 13.72z" fill="url(#a)"/></g></g></svg>