<svg xmlns="http://www.w3.org/2000/svg" viewBox="0 0 459 459"><defs><linearGradient id="a" x1="-382.97" y1="663.25" x2="565.17" y2="-38.96" gradientUnits="userSpaceOnUse"><stop offset=".02" stop-color="#00bed9"/><stop offset=".07" stop-color="#0eacd3"/><stop offset=".25" stop-color="#3778c1"/><stop offset=".42" stop-color="#584db3"/><stop offset=".58" stop-color="#722ba8"/><stop offset=".74" stop-color="#8513a0"/><stop offset=".88" stop-color="#90059b"/><stop offset="1" stop-color="#940099"/></linearGradient></defs><g data-name="Слой 2"><g data-name="Слой 1"><path d="M113.8 458.5C51.33 458.5.5 406.08.5 341.64V117.36C.5 52.92 51.33.5 113.8.5h231.4c62.47 0 113.3 52.42 113.3 116.86v224.28c0 64.44-50.83 116.86-113.3 116.86z" fill="#fff"/><path d="M345.2 1A110.35 110.35 0 01425 35.07a117.48 117.48 0 0133 82.29v224.28a117.48 117.48 0 01-33 82.29A110.35 110.35 0 01345.2 458H113.8a110.35 110.35 0 01-79.75-34.07A117.48 117.48 0 011 341.64V117.36a117.48 117.48 0 0133.05-82.29A110.35 110.35 0 01113.8 1h231.4m0-1H113.8C51 0 0 52.54 0 117.36v224.28C0 406.46 51 459 113.8 459h231.4c62.85 0 113.8-52.54 113.8-117.36V117.36C459 52.54 408.05 0 345.2 0z"/><path d="M217 113.51a45.1 45.1 0 00-14 33.34v47.46h88.24v40.78H203V385.7h-40.76V146.85a84.27 84.27 0 0112-43.73A90.26 90.26 0 01206.36 71a84.34 84.34 0 0143.73-12h46.67v40.79h-46.67A45.62 45.62 0 00217 113.51z" fill="url(#a)"/></g></g></svg>