<svg xmlns="http://www.w3.org/2000/svg" viewBox="0 0 459 459"><defs><linearGradient id="a" x1="-90.28" y1="436.82" x2="896.21" y2="-202.75" gradientUnits="userSpaceOnUse"><stop offset=".02" stop-color="#00bed9"/><stop offset=".07" stop-color="#0eacd3"/><stop offset=".25" stop-color="#3778c1"/><stop offset=".42" stop-color="#584db3"/><stop offset=".58" stop-color="#722ba8"/><stop offset=".74" stop-color="#8513a0"/><stop offset=".88" stop-color="#90059b"/><stop offset="1" stop-color="#940099"/></linearGradient></defs><g data-name="Слой 2"><g data-name="Слой 1"><path d="M345.2 459H113.8C51 459 0 406.46 0 341.64V117.36C0 52.54 51 0 113.8 0h231.4C408.05 0 459 52.54 459 117.36v224.28C459 406.46 408.05 459 345.2 459z" fill="url(#a)"/><path d="M217 113.51a45.1 45.1 0 00-14 33.34v47.46h88.24v40.78H203V385.7h-40.76V146.85a84.27 84.27 0 0112-43.73A90.26 90.26 0 01206.36 71a84.34 84.34 0 0143.73-12h46.67v40.79h-46.67A45.62 45.62 0 00217 113.51z" fill="#fff"/></g></g></svg>