<svg xmlns="http://www.w3.org/2000/svg" viewBox="0 0 459 459"><defs><linearGradient id="a" x1="-115.03" y1="500.47" x2="794.27" y2="-214.68" gradientUnits="userSpaceOnUse"><stop offset=".02" stop-color="#00bed9"/><stop offset=".07" stop-color="#0eacd3"/><stop offset=".25" stop-color="#3778c1"/><stop offset=".42" stop-color="#584db3"/><stop offset=".58" stop-color="#722ba8"/><stop offset=".74" stop-color="#8513a0"/><stop offset=".88" stop-color="#90059b"/><stop offset="1" stop-color="#940099"/></linearGradient></defs><g data-name="Слой 2"><g data-name="Слой 1"><circle cx="229.5" cy="229.5" r="229.5" fill="url(#a)"/><path d="M64.43 188.37a14.13 14.13 0 00-4.37 10.45v14.89h27.68v12.79H60.06v47.23H47.27v-74.91A26.43 26.43 0 0151 185.11 28.2 28.2 0 0161.11 175a26.43 26.43 0 0113.71-3.75h14.64v12.79H74.82a14.29 14.29 0 00-10.39 4.33zm79.03 57.44v-26.08a14.33 14.33 0 00-4.37-10.51 14.49 14.49 0 00-10.64-4.37 14.92 14.92 0 00-14.88 14.88v26.08h-13v-26.08a27.34 27.34 0 013.75-14 27.78 27.78 0 0110.21-10.21 28.1 28.1 0 0128.05 0 28 28 0 0110.21 10.15 27.22 27.22 0 013.75 14v26.08zm-29 24.17a27.7 27.7 0 01-10.21-10.21 27.32 27.32 0 01-3.75-14h13a14.9 14.9 0 0014.88 14.88 14.9 14.9 0 0015-14.88h13a27.22 27.22 0 01-3.75 14A27.92 27.92 0 01142.54 270a28.1 28.1 0 01-28 0zm113.01-78.17v81.92H199.3a27 27 0 01-14-3.81 28.72 28.72 0 01-10.27-10.27 27 27 0 01-3.81-14h13a15.11 15.11 0 0015 15h15.13v-68.84zm-43.17 0v53.88h-13v-53.88zm64.14 13.96a27.94 27.94 0 0124.3-14v13a14.92 14.92 0 00-15 15v53.87h-13v-53.78a27.57 27.57 0 013.7-14.09zM341 229.82v16a27.22 27.22 0 01-3.75 14A28.06 28.06 0 01313 273.73a27.29 27.29 0 01-14-3.73 27.63 27.63 0 01-10.21-10.21 27.22 27.22 0 01-3.75-14h13a14.95 14.95 0 0029.89 0v-5.29L285 232.77v-13a27.24 27.24 0 013.75-14A27.7 27.7 0 01299 195.56a27.93 27.93 0 0130.5 1.66 27.93 27.93 0 0110.15 13.9l-12.18 4.8a15 15 0 00-5.35-7.93 14.91 14.91 0 00-24.05 11.74v2.34zm56.77-34.26A27.92 27.92 0 01408 205.71a27.22 27.22 0 013.75 14v13l-42.93 7.75v5.29a14.95 14.95 0 0029.89 0h13a27.22 27.22 0 01-3.75 14 28.06 28.06 0 01-24.3 13.9 27.34 27.34 0 01-14-3.75 27.78 27.78 0 01-10.21-10.21 27.32 27.32 0 01-3.75-14v-25.96a27.34 27.34 0 013.75-14 27.85 27.85 0 0110.21-10.21 28.1 28.1 0 0128 0zm.92 26.51v-2.34a14.33 14.33 0 00-4.37-10.51 14.47 14.47 0 00-10.64-4.37 14.92 14.92 0 00-14.88 14.88v7.75z" fill="#fff"/></g></g></svg>