<svg xmlns="http://www.w3.org/2000/svg" xmlns:xlink="http://www.w3.org/1999/xlink" viewBox="0 0 459 459"><defs><linearGradient id="a" x1="-446.92" y1="477.61" x2="1290.79" y2="-389.62" gradientUnits="userSpaceOnUse"><stop offset=".02" stop-color="#00bed9"/><stop offset=".07" stop-color="#0eacd3"/><stop offset=".25" stop-color="#3778c1"/><stop offset=".42" stop-color="#584db3"/><stop offset=".58" stop-color="#722ba8"/><stop offset=".74" stop-color="#8513a0"/><stop offset=".88" stop-color="#90059b"/><stop offset="1" stop-color="#940099"/></linearGradient><linearGradient id="b" x1="-430" y1="511.51" x2="1307.71" y2="-355.73" xlink:href="#a"/><linearGradient id="c" x1="-415.87" y1="539.82" x2="1321.83" y2="-327.42" xlink:href="#a"/><linearGradient id="d" x1="-403.41" y1="564.8" x2="1334.3" y2="-302.44" xlink:href="#a"/><linearGradient id="e" x1="-393.21" y1="585.23" x2="1344.5" y2="-282.01" xlink:href="#a"/><linearGradient id="f" x1="-379.11" y1="613.49" x2="1358.6" y2="-253.75" xlink:href="#a"/></defs><g data-name="Слой 2"><g data-name="Слой 1"><path d="M113.8 458.5C51.33 458.5.5 406.08.5 341.64V117.36C.5 52.92 51.33.5 113.8.5h231.4c62.47 0 113.3 52.42 113.3 116.86v224.28c0 64.44-50.83 116.86-113.3 116.86z" fill="#fff"/><path d="M345.2 1A110.35 110.35 0 01425 35.07a117.48 117.48 0 0133 82.29v224.28a117.48 117.48 0 01-33 82.29A110.35 110.35 0 01345.2 458H113.8a110.35 110.35 0 01-79.75-34.07A117.48 117.48 0 011 341.64V117.36a117.48 117.48 0 0133.05-82.29A110.35 110.35 0 01113.8 1h231.4m0-1H113.8C51 0 0 52.54 0 117.36v224.28C0 406.46 51 459 113.8 459h231.4c62.85 0 113.8-52.54 113.8-117.36V117.36C459 52.54 408.05 0 345.2 0z"/><path d="M64.43 188.37a14.13 14.13 0 00-4.37 10.45v14.89h27.68v12.79H60.06v47.23H47.27v-74.91A26.43 26.43 0 0151 185.11 28.2 28.2 0 0161.11 175a26.43 26.43 0 0113.71-3.75h14.64v12.79H74.82a14.29 14.29 0 00-10.39 4.33z" fill="url(#a)"/><path d="M143.46 245.81v-26.08a14.33 14.33 0 00-4.37-10.51 14.49 14.49 0 00-10.64-4.37 14.92 14.92 0 00-14.88 14.88v26.08h-13v-26.08a27.34 27.34 0 013.75-14 27.78 27.78 0 0110.21-10.21 28.1 28.1 0 0128.05 0 28 28 0 0110.21 10.15 27.22 27.22 0 013.75 14v26.08zm-29 24.17a27.7 27.7 0 01-10.21-10.21 27.32 27.32 0 01-3.75-14h13a14.9 14.9 0 0014.88 14.88 14.9 14.9 0 0015-14.88h13a27.22 27.22 0 01-3.75 14A27.92 27.92 0 01142.54 270a28.1 28.1 0 01-28 0z" fill="url(#b)"/><path d="M227.47 191.81v81.92H199.3a27 27 0 01-14-3.81 28.72 28.72 0 01-10.27-10.27 27 27 0 01-3.81-14h13a15.11 15.11 0 0015 15h15.13v-68.84zm-43.17 0v53.88h-13v-53.88z" fill="url(#c)"/><path d="M248.44 205.77a27.94 27.94 0 0124.3-14v13a14.92 14.92 0 00-15 15v53.87h-13v-53.78a27.57 27.57 0 013.7-14.09z" fill="url(#d)"/><path d="M341 229.82v16a27.22 27.22 0 01-3.75 14A28.06 28.06 0 01313 273.73a27.29 27.29 0 01-14-3.73 27.63 27.63 0 01-10.21-10.21 27.22 27.22 0 01-3.75-14h13a14.95 14.95 0 0029.89 0v-5.29L285 232.77v-13a27.24 27.24 0 013.75-14A27.7 27.7 0 01299 195.56a27.93 27.93 0 0130.5 1.66 27.93 27.93 0 0110.15 13.9l-12.18 4.8a15 15 0 00-5.35-7.93 14.91 14.91 0 00-24.05 11.74v2.34z" fill="url(#e)"/><path d="M397.77 195.56A27.92 27.92 0 01408 205.71a27.22 27.22 0 013.75 14v13l-42.93 7.75v5.29a14.95 14.95 0 0029.89 0h13a27.22 27.22 0 01-3.75 14 28.06 28.06 0 01-24.3 13.9 27.34 27.34 0 01-14-3.75 27.78 27.78 0 01-10.21-10.21 27.32 27.32 0 01-3.75-14v-25.96a27.34 27.34 0 013.75-14 27.85 27.85 0 0110.21-10.21 28.1 28.1 0 0128 0zm.92 26.51v-2.34a14.33 14.33 0 00-4.37-10.51 14.47 14.47 0 00-10.64-4.37 14.92 14.92 0 00-14.88 14.88v7.75z" fill="url(#f)"/></g></g></svg>